<svg width="95" height="84" viewBox="0 0 95 84" fill="none" xmlns="http://www.w3.org/2000/svg">
<circle cx="47.6641" cy="34.5" r="34.5" fill="white"/>
<path d="M38.8528 45.36C36.8795 45.36 35.2795 44.6667 34.0528 43.28C32.8795 41.84 32.2928 39.9733 32.2928 37.68C32.2928 34.6933 33.1728 31.92 34.9328 29.36C36.6928 26.7467 38.8795 24.8 41.4928 23.52L41.9728 24.48C40.8528 25.3333 39.8661 26.4267 39.0128 27.76C38.1595 29.0933 37.5461 30.7467 37.1728 32.72L38.8528 33.12C40.7195 33.5467 42.1595 34.3467 43.1728 35.52C44.2395 36.64 44.7728 38 44.7728 39.6C44.7728 41.3067 44.1861 42.6933 43.0128 43.76C41.8928 44.8267 40.5061 45.36 38.8528 45.36ZM55.7328 45.36C53.7595 45.36 52.1595 44.6667 50.9328 43.28C49.7595 41.84 49.1728 39.9733 49.1728 37.68C49.1728 34.6933 50.0528 31.92 51.8128 29.36C53.5728 26.7467 55.7595 24.8 58.3728 23.52L58.8528 24.48C57.7328 25.3333 56.7461 26.4267 55.8928 27.76C55.0395 29.0933 54.4261 30.7467 54.0528 32.72L55.7328 33.12C57.5995 33.5467 59.0395 34.3467 60.0528 35.52C61.1195 36.64 61.6528 38 61.6528 39.6C61.6528 41.3067 61.0661 42.6933 59.8928 43.76C58.7728 44.8267 57.3861 45.36 55.7328 45.36Z" fill="#292F36"/>
</svg>
