<svg width="570" height="326" viewBox="0 0 570 326" fill="none" xmlns="http://www.w3.org/2000/svg">
<path d="M72.6094 174V133.5H6.85938V119.25L80.1094 13.5H104.609V115H128.359V133.5H104.609V174H72.6094ZM17.8594 115H72.6094V36.25L17.8594 115ZM198.131 177.75C188.131 177.75 178.714 174.917 169.881 169.25C161.214 163.583 154.214 154.667 148.881 142.5C143.548 130.333 140.881 114.5 140.881 95C140.881 75.3333 143.548 59.4167 148.881 47.25C154.214 34.9167 161.214 25.9167 169.881 20.25C178.714 14.5833 188.131 11.75 198.131 11.75C208.131 11.75 217.464 14.5833 226.131 20.25C234.964 25.9167 242.048 34.9167 247.381 47.25C252.881 59.4167 255.631 75.3333 255.631 95C255.631 114.5 252.881 130.333 247.381 142.5C242.048 154.667 234.964 163.583 226.131 169.25C217.464 174.917 208.131 177.75 198.131 177.75ZM198.131 172.75C202.298 172.75 205.798 171.667 208.631 169.5C211.631 167.333 214.048 163.417 215.881 157.75C217.714 152.083 219.048 144.25 219.881 134.25C220.714 124.083 221.131 111 221.131 95C221.131 79 220.714 65.9167 219.881 55.75C219.048 45.4167 217.714 37.4167 215.881 31.75C214.048 26.0833 211.631 22.1667 208.631 20C205.798 17.8333 202.298 16.75 198.131 16.75C193.964 16.75 190.381 17.8333 187.381 20C184.548 22.1667 182.214 26.0833 180.381 31.75C178.548 37.25 177.214 45.1667 176.381 55.5C175.548 65.6667 175.131 78.8333 175.131 95C175.131 111 175.548 124.083 176.381 134.25C177.214 144.417 178.548 152.333 180.381 158C182.214 163.5 184.548 167.333 187.381 169.5C190.381 171.667 193.964 172.75 198.131 172.75ZM332.619 174V133.5H266.869V119.25L340.119 13.5H364.619V115H388.369V133.5H364.619V174H332.619ZM277.869 115H332.619V36.25L277.869 115Z" fill="#CDA274"/>
<path d="M9.11938 242.105L2.92438 221.28C2.76104 220.743 2.58604 220.358 2.39938 220.125C2.21271 219.868 1.88604 219.635 1.41938 219.425L0.999375 219.25V218.9H10.2744V219.25L9.53938 219.53C9.00271 219.74 8.64104 219.997 8.45438 220.3C8.26771 220.603 8.25604 221.023 8.41938 221.56L12.2344 236.12L16.3644 223.905L15.5594 221.42C15.396 220.93 15.2444 220.557 15.1044 220.3C14.9644 220.043 14.731 219.833 14.4044 219.67L13.6344 219.25V218.9H22.4194V219.25L21.3344 219.67C20.8677 219.833 20.5994 220.078 20.5294 220.405C20.4827 220.708 20.541 221.105 20.7044 221.595L25.1494 236.47L29.3494 221.875C29.5127 221.315 29.571 220.825 29.5244 220.405C29.4777 219.985 29.186 219.682 28.6494 219.495L27.9144 219.25V218.9H32.7794V219.25L31.8694 219.6C31.4027 219.763 31.076 220.02 30.8894 220.37C30.7027 220.72 30.5394 221.152 30.3994 221.665L24.5894 242.105H22.1744L16.9244 225.655L11.5344 242.105H9.11938ZM39.5762 224.64C41.0929 224.64 42.3879 224.955 43.4612 225.585C44.5345 226.192 45.3512 227.032 45.9112 228.105C46.4945 229.155 46.7862 230.357 46.7862 231.71C46.7862 231.967 46.7745 232.235 46.7512 232.515C46.7279 232.772 46.6812 233.005 46.6112 233.215H36.1812C36.2045 235.735 36.6479 237.555 37.5112 238.675C38.3979 239.772 39.7045 240.32 41.4312 240.32C42.5979 240.32 43.5429 240.133 44.2662 239.76C44.9895 239.387 45.6662 238.838 46.2962 238.115L46.6462 238.43C45.9229 239.713 44.9545 240.717 43.7412 241.44C42.5512 242.163 41.1162 242.525 39.4362 242.525C37.7795 242.525 36.3095 242.175 35.0262 241.475C33.7429 240.752 32.7395 239.725 32.0162 238.395C31.2929 237.065 30.9312 235.478 30.9312 233.635C30.9312 231.722 31.3512 230.1 32.1912 228.77C33.0312 227.417 34.1045 226.39 35.4112 225.69C36.7412 224.99 38.1295 224.64 39.5762 224.64ZM39.4712 225.34C38.7945 225.34 38.2112 225.55 37.7212 225.97C37.2545 226.367 36.8812 227.09 36.6012 228.14C36.3445 229.167 36.2045 230.625 36.1812 232.515H42.1662C42.3995 229.972 42.3062 228.14 41.8862 227.02C41.4662 225.9 40.6612 225.34 39.4712 225.34ZM61.9625 242.525C60.6092 242.525 59.4659 242.14 58.5325 241.37C57.6225 240.6 57.1675 239.492 57.1675 238.045C57.1675 236.948 57.7275 235.945 58.8475 235.035C59.9675 234.102 61.7292 233.402 64.1325 232.935C64.5059 232.865 64.9259 232.795 65.3925 232.725C65.8592 232.632 66.3492 232.538 66.8625 232.445V229.68C66.8625 228.093 66.6642 226.985 66.2675 226.355C65.8942 225.702 65.2992 225.375 64.4825 225.375C63.9225 225.375 63.4792 225.562 63.1525 225.935C62.8259 226.285 62.6159 226.903 62.5225 227.79L62.4525 228.175C62.4059 229.178 62.1609 229.913 61.7175 230.38C61.2742 230.847 60.7259 231.08 60.0725 231.08C59.4659 231.08 58.9642 230.893 58.5675 230.52C58.1709 230.147 57.9725 229.645 57.9725 229.015C57.9725 228.058 58.2992 227.253 58.9525 226.6C59.6292 225.947 60.5159 225.457 61.6125 225.13C62.7092 224.803 63.8992 224.64 65.1825 224.64C67.2592 224.64 68.8575 225.153 69.9775 226.18C71.1209 227.183 71.6925 228.828 71.6925 231.115V238.85C71.6925 239.9 72.1825 240.425 73.1625 240.425H73.9325L74.2475 240.705C73.8042 241.265 73.3142 241.697 72.7775 242C72.2642 242.303 71.5292 242.455 70.5725 242.455C69.5459 242.455 68.7292 242.222 68.1225 241.755C67.5392 241.265 67.1542 240.623 66.9675 239.83C66.2675 240.577 65.5442 241.218 64.7975 241.755C64.0742 242.268 63.1292 242.525 61.9625 242.525ZM64.0975 240.39C64.5642 240.39 64.9959 240.285 65.3925 240.075C65.8125 239.842 66.3025 239.492 66.8625 239.025V233.145C66.6292 233.192 66.3959 233.238 66.1625 233.285C65.9292 233.332 65.6609 233.378 65.3575 233.425C64.2842 233.705 63.4209 234.183 62.7675 234.86C62.1375 235.513 61.8225 236.4 61.8225 237.52C61.8225 238.477 62.0442 239.2 62.4875 239.69C62.9309 240.157 63.4675 240.39 64.0975 240.39ZM75.2494 242V241.65L75.7744 241.51C76.2411 241.37 76.5561 241.16 76.7194 240.88C76.9061 240.6 76.9994 240.238 76.9994 239.795V228.84C76.9994 228.327 76.9061 227.953 76.7194 227.72C76.5561 227.463 76.2411 227.288 75.7744 227.195L75.2494 227.055V226.705L81.2694 224.675L81.6194 225.025L81.9344 228.035V228.315C82.2611 227.662 82.6811 227.067 83.1944 226.53C83.7311 225.97 84.3144 225.515 84.9444 225.165C85.5977 224.815 86.2394 224.64 86.8694 224.64C87.7561 224.64 88.4327 224.885 88.8994 225.375C89.3661 225.865 89.5994 226.483 89.5994 227.23C89.5994 228.023 89.3661 228.642 88.8994 229.085C88.4561 229.505 87.9194 229.715 87.2894 229.715C86.3094 229.715 85.4461 229.225 84.6994 228.245L84.6294 228.175C84.3961 227.848 84.1277 227.673 83.8244 227.65C83.5211 227.603 83.2411 227.743 82.9844 228.07C82.7511 228.28 82.5527 228.537 82.3894 228.84C82.2494 229.12 82.1094 229.447 81.9694 229.82V239.585C81.9694 240.518 82.3777 241.102 83.1944 241.335L84.3144 241.65V242H75.2494ZM99.2868 224.64C100.803 224.64 102.098 224.955 103.172 225.585C104.245 226.192 105.062 227.032 105.622 228.105C106.205 229.155 106.497 230.357 106.497 231.71C106.497 231.967 106.485 232.235 106.462 232.515C106.438 232.772 106.392 233.005 106.322 233.215H95.8918C95.9151 235.735 96.3584 237.555 97.2218 238.675C98.1084 239.772 99.4151 240.32 101.142 240.32C102.308 240.32 103.253 240.133 103.977 239.76C104.7 239.387 105.377 238.838 106.007 238.115L106.357 238.43C105.633 239.713 104.665 240.717 103.452 241.44C102.262 242.163 100.827 242.525 99.1468 242.525C97.4901 242.525 96.0201 242.175 94.7368 241.475C93.4534 240.752 92.4501 239.725 91.7268 238.395C91.0034 237.065 90.6418 235.478 90.6418 233.635C90.6418 231.722 91.0618 230.1 91.9018 228.77C92.7418 227.417 93.8151 226.39 95.1218 225.69C96.4518 224.99 97.8401 224.64 99.2868 224.64ZM99.1818 225.34C98.5051 225.34 97.9218 225.55 97.4318 225.97C96.9651 226.367 96.5918 227.09 96.3118 228.14C96.0551 229.167 95.9151 230.625 95.8918 232.515H101.877C102.11 229.972 102.017 228.14 101.597 227.02C101.177 225.9 100.372 225.34 99.1818 225.34ZM122.618 242.525C121.475 242.525 120.448 242.385 119.538 242.105C118.628 241.848 117.788 241.522 117.018 241.125L117.053 236.96H117.403L118.593 239.06C119.106 239.993 119.666 240.693 120.273 241.16C120.903 241.603 121.696 241.825 122.653 241.825C123.773 241.825 124.671 241.58 125.348 241.09C126.048 240.577 126.398 239.9 126.398 239.06C126.398 238.29 126.153 237.66 125.663 237.17C125.173 236.68 124.263 236.237 122.933 235.84L121.463 235.385C120.04 234.965 118.92 234.312 118.103 233.425C117.286 232.538 116.878 231.453 116.878 230.17C116.878 228.63 117.485 227.323 118.698 226.25C119.911 225.177 121.65 224.64 123.913 224.64C124.823 224.64 125.675 224.745 126.468 224.955C127.285 225.142 128.066 225.433 128.813 225.83L128.603 229.61H128.253L127.028 227.44C126.585 226.67 126.141 226.133 125.698 225.83C125.278 225.503 124.636 225.34 123.773 225.34C122.98 225.34 122.233 225.562 121.533 226.005C120.833 226.448 120.483 227.078 120.483 227.895C120.483 228.688 120.775 229.318 121.358 229.785C121.965 230.252 122.851 230.683 124.018 231.08L125.593 231.535C127.273 232.048 128.475 232.76 129.198 233.67C129.921 234.557 130.283 235.63 130.283 236.89C130.283 238.593 129.606 239.958 128.253 240.985C126.923 242.012 125.045 242.525 122.618 242.525ZM141.012 242.525C139.239 242.525 137.699 242.163 136.392 241.44C135.086 240.693 134.071 239.643 133.347 238.29C132.647 236.937 132.297 235.35 132.297 233.53C132.297 231.71 132.671 230.135 133.417 228.805C134.187 227.475 135.226 226.448 136.532 225.725C137.862 225.002 139.356 224.64 141.012 224.64C142.669 224.64 144.151 225.002 145.457 225.725C146.764 226.425 147.791 227.44 148.537 228.77C149.307 230.1 149.692 231.687 149.692 233.53C149.692 235.373 149.331 236.972 148.607 238.325C147.907 239.655 146.904 240.693 145.597 241.44C144.314 242.163 142.786 242.525 141.012 242.525ZM141.012 241.825C141.829 241.825 142.482 241.592 142.972 241.125C143.462 240.658 143.812 239.83 144.022 238.64C144.256 237.45 144.372 235.77 144.372 233.6C144.372 231.407 144.256 229.715 144.022 228.525C143.812 227.335 143.462 226.507 142.972 226.04C142.482 225.573 141.829 225.34 141.012 225.34C140.196 225.34 139.531 225.573 139.017 226.04C138.527 226.507 138.166 227.335 137.932 228.525C137.722 229.715 137.617 231.407 137.617 233.6C137.617 235.77 137.722 237.45 137.932 238.64C138.166 239.83 138.527 240.658 139.017 241.125C139.531 241.592 140.196 241.825 141.012 241.825ZM151.579 242V241.65L152.104 241.51C152.571 241.37 152.886 241.16 153.049 240.88C153.236 240.6 153.329 240.238 153.329 239.795V228.84C153.329 228.327 153.236 227.953 153.049 227.72C152.886 227.463 152.571 227.288 152.104 227.195L151.579 227.055V226.705L157.599 224.675L157.949 225.025L158.264 228.035V228.315C158.591 227.662 159.011 227.067 159.524 226.53C160.061 225.97 160.644 225.515 161.274 225.165C161.928 224.815 162.569 224.64 163.199 224.64C164.086 224.64 164.763 224.885 165.229 225.375C165.696 225.865 165.929 226.483 165.929 227.23C165.929 228.023 165.696 228.642 165.229 229.085C164.786 229.505 164.249 229.715 163.619 229.715C162.639 229.715 161.776 229.225 161.029 228.245L160.959 228.175C160.726 227.848 160.458 227.673 160.154 227.65C159.851 227.603 159.571 227.743 159.314 228.07C159.081 228.28 158.883 228.537 158.719 228.84C158.579 229.12 158.439 229.447 158.299 229.82V239.585C158.299 240.518 158.708 241.102 159.524 241.335L160.644 241.65V242H151.579ZM167.379 242V241.65L167.904 241.51C168.37 241.37 168.685 241.16 168.849 240.88C169.035 240.6 169.129 240.238 169.129 239.795V228.84C169.129 228.327 169.035 227.953 168.849 227.72C168.685 227.463 168.37 227.288 167.904 227.195L167.379 227.055V226.705L173.399 224.675L173.749 225.025L174.064 228.035V228.315C174.39 227.662 174.81 227.067 175.324 226.53C175.86 225.97 176.444 225.515 177.074 225.165C177.727 224.815 178.369 224.64 178.999 224.64C179.885 224.64 180.562 224.885 181.029 225.375C181.495 225.865 181.729 226.483 181.729 227.23C181.729 228.023 181.495 228.642 181.029 229.085C180.585 229.505 180.049 229.715 179.419 229.715C178.439 229.715 177.575 229.225 176.829 228.245L176.759 228.175C176.525 227.848 176.257 227.673 175.954 227.65C175.65 227.603 175.37 227.743 175.114 228.07C174.88 228.28 174.682 228.537 174.519 228.84C174.379 229.12 174.239 229.447 174.099 229.82V239.585C174.099 240.518 174.507 241.102 175.324 241.335L176.444 241.65V242H167.379ZM186.945 250.4C186.011 250.4 185.265 250.167 184.705 249.7C184.168 249.233 183.9 248.638 183.9 247.915C183.9 247.262 184.133 246.737 184.6 246.34C185.066 245.943 185.591 245.745 186.175 245.745C186.758 245.745 187.248 245.862 187.645 246.095C188.041 246.352 188.391 246.713 188.695 247.18L188.94 247.46C189.453 248.16 189.966 248.148 190.48 247.425C190.69 247.075 190.923 246.608 191.18 246.025C191.46 245.465 191.775 244.707 192.125 243.75L185.335 227.51C185.171 227.067 184.996 226.717 184.81 226.46C184.623 226.18 184.32 225.947 183.9 225.76L183.27 225.515V225.165H191.985V225.48L191.285 225.76C190.771 225.923 190.503 226.192 190.48 226.565C190.48 226.915 190.573 227.358 190.76 227.895L194.4 237.345L197.865 227.79C198.051 227.253 198.121 226.81 198.075 226.46C198.028 226.087 197.736 225.83 197.2 225.69L196.465 225.515V225.165H201.33V225.515L200.56 225.76C200.023 225.923 199.65 226.157 199.44 226.46C199.23 226.763 199.031 227.183 198.845 227.72L193.21 243.085C192.3 245.535 191.39 247.367 190.48 248.58C189.57 249.793 188.391 250.4 186.945 250.4ZM201.664 247.565L201.454 247.075C202.247 246.585 202.842 245.99 203.239 245.29C203.659 244.613 203.951 243.762 204.114 242.735L202.959 242.245C202.282 241.918 201.757 241.498 201.384 240.985C201.034 240.448 200.859 239.912 200.859 239.375C200.859 238.558 201.127 237.882 201.664 237.345C202.201 236.785 202.901 236.505 203.764 236.505C204.651 236.505 205.362 236.82 205.899 237.45C206.459 238.057 206.739 238.943 206.739 240.11C206.739 241.393 206.471 242.537 205.934 243.54C205.421 244.567 204.779 245.418 204.009 246.095C203.239 246.795 202.457 247.285 201.664 247.565ZM224.119 242.455L218.204 242V241.65L218.554 241.58C219.464 241.37 219.919 240.787 219.919 239.83V221.105C219.919 220.615 219.838 220.242 219.674 219.985C219.534 219.728 219.231 219.553 218.764 219.46L218.274 219.32V218.97L224.504 217.465L224.924 217.78L224.784 222.715V226.25C225.554 225.713 226.394 225.317 227.304 225.06C228.214 224.78 229.136 224.64 230.069 224.64C231.399 224.64 232.578 224.955 233.604 225.585C234.631 226.192 235.436 227.148 236.019 228.455C236.626 229.738 236.929 231.395 236.929 233.425C236.929 235.455 236.591 237.147 235.914 238.5C235.261 239.83 234.374 240.833 233.254 241.51C232.158 242.187 230.944 242.525 229.614 242.525C228.751 242.525 227.876 242.408 226.989 242.175C226.126 241.942 225.356 241.615 224.679 241.195L224.119 242.455ZM227.864 241.335C228.611 241.335 229.264 241.102 229.824 240.635C230.384 240.168 230.828 239.375 231.154 238.255C231.481 237.112 231.644 235.548 231.644 233.565C231.644 231.582 231.493 230.053 231.189 228.98C230.886 227.907 230.454 227.16 229.894 226.74C229.358 226.32 228.704 226.11 227.934 226.11C226.838 226.11 225.823 226.413 224.889 227.02V240.46C225.333 240.74 225.788 240.962 226.254 241.125C226.721 241.265 227.258 241.335 227.864 241.335ZM245.019 242.525C244.109 242.525 243.269 242.35 242.499 242C241.753 241.65 241.158 241.09 240.714 240.32C240.294 239.527 240.096 238.488 240.119 237.205L240.224 228.21C240.224 227.673 240.131 227.288 239.944 227.055C239.758 226.822 239.466 226.658 239.069 226.565L238.649 226.425V226.075L244.914 224.85L245.264 225.2L245.089 230.17V238.605C245.089 239.352 245.299 239.9 245.719 240.25C246.163 240.6 246.711 240.775 247.364 240.775C248.018 240.775 248.601 240.682 249.114 240.495C249.628 240.308 250.141 240.028 250.654 239.655L250.794 228.245C250.794 227.708 250.713 227.335 250.549 227.125C250.386 226.892 250.083 226.728 249.639 226.635L249.289 226.53V226.18L255.414 224.85L255.764 225.2L255.659 230.17V239.655C255.659 240.168 255.729 240.565 255.869 240.845C256.009 241.125 256.313 241.358 256.779 241.545L257.129 241.65V242L251.004 242.35L250.689 240.285C249.919 240.915 249.079 241.452 248.169 241.895C247.283 242.315 246.233 242.525 245.019 242.525ZM265.543 242.525C264.049 242.525 262.883 242.152 262.043 241.405C261.226 240.658 260.818 239.468 260.818 237.835V225.865H258.403V225.515L259.243 225.375C259.966 225.212 260.584 224.978 261.098 224.675C261.634 224.372 262.159 223.963 262.673 223.45L265.543 220.265H265.893L265.788 225.165H269.708V225.865H265.753V238.465C265.753 239.282 265.928 239.9 266.278 240.32C266.651 240.74 267.118 240.95 267.678 240.95C268.168 240.95 268.599 240.833 268.973 240.6C269.346 240.343 269.719 240.005 270.093 239.585L270.443 239.935C269.976 240.728 269.334 241.358 268.518 241.825C267.701 242.292 266.709 242.525 265.543 242.525ZM286.511 242.525C285.018 242.525 283.851 242.152 283.011 241.405C282.195 240.658 281.786 239.468 281.786 237.835V225.865H279.371V225.515L280.211 225.375C280.935 225.212 281.553 224.978 282.066 224.675C282.603 224.372 283.128 223.963 283.641 223.45L286.511 220.265H286.861L286.756 225.165H290.676V225.865H286.721V238.465C286.721 239.282 286.896 239.9 287.246 240.32C287.62 240.74 288.086 240.95 288.646 240.95C289.136 240.95 289.568 240.833 289.941 240.6C290.315 240.343 290.688 240.005 291.061 239.585L291.411 239.935C290.945 240.728 290.303 241.358 289.486 241.825C288.67 242.292 287.678 242.525 286.511 242.525ZM292.963 242V241.65L293.383 241.51C294.223 241.23 294.643 240.647 294.643 239.76V221.07C294.643 220.58 294.561 220.218 294.398 219.985C294.234 219.752 293.919 219.577 293.453 219.46L292.928 219.32V218.97L299.088 217.465L299.648 217.78L299.508 222.715V227.09C300.324 226.413 301.199 225.842 302.133 225.375C303.089 224.885 304.139 224.64 305.283 224.64C306.799 224.64 308.001 225.072 308.888 225.935C309.798 226.798 310.253 228.128 310.253 229.925V239.795C310.253 240.262 310.346 240.635 310.533 240.915C310.719 241.195 311.046 241.405 311.513 241.545L311.793 241.65V242H303.603V241.65L304.023 241.545C304.863 241.265 305.283 240.67 305.283 239.76V228.77C305.283 227.837 305.119 227.195 304.793 226.845C304.489 226.495 303.941 226.32 303.148 226.32C302.634 226.32 302.074 226.425 301.468 226.635C300.861 226.822 300.243 227.16 299.613 227.65V239.83C299.613 240.74 300.033 241.323 300.873 241.58L301.153 241.65V242H292.963ZM322.296 224.64C323.812 224.64 325.107 224.955 326.181 225.585C327.254 226.192 328.071 227.032 328.631 228.105C329.214 229.155 329.506 230.357 329.506 231.71C329.506 231.967 329.494 232.235 329.471 232.515C329.447 232.772 329.401 233.005 329.331 233.215H318.901C318.924 235.735 319.367 237.555 320.231 238.675C321.117 239.772 322.424 240.32 324.151 240.32C325.317 240.32 326.262 240.133 326.986 239.76C327.709 239.387 328.386 238.838 329.016 238.115L329.366 238.43C328.642 239.713 327.674 240.717 326.461 241.44C325.271 242.163 323.836 242.525 322.156 242.525C320.499 242.525 319.029 242.175 317.746 241.475C316.462 240.752 315.459 239.725 314.736 238.395C314.012 237.065 313.651 235.478 313.651 233.635C313.651 231.722 314.071 230.1 314.911 228.77C315.751 227.417 316.824 226.39 318.131 225.69C319.461 224.99 320.849 224.64 322.296 224.64ZM322.191 225.34C321.514 225.34 320.931 225.55 320.441 225.97C319.974 226.367 319.601 227.09 319.321 228.14C319.064 229.167 318.924 230.625 318.901 232.515H324.886C325.119 229.972 325.026 228.14 324.606 227.02C324.186 225.9 323.381 225.34 322.191 225.34ZM339.572 250.05V249.7L339.992 249.56C340.855 249.327 341.287 248.767 341.287 247.88V228.84C341.287 228.327 341.194 227.942 341.007 227.685C340.844 227.428 340.529 227.253 340.062 227.16L339.572 227.055V226.705L345.522 224.675L345.872 225.025L346.187 226.11C346.957 225.643 347.809 225.282 348.742 225.025C349.699 224.768 350.679 224.64 351.682 224.64C353.689 224.64 355.275 225.41 356.442 226.95C357.632 228.467 358.227 230.648 358.227 233.495C358.227 236.295 357.574 238.5 356.267 240.11C354.984 241.72 353.164 242.525 350.807 242.525C348.964 242.525 347.412 242.257 346.152 241.72V247.775C346.152 248.708 346.572 249.292 347.412 249.525L348.077 249.7V250.05H339.572ZM349.127 241.51C350.294 241.51 351.215 240.903 351.892 239.69C352.592 238.477 352.942 236.458 352.942 233.635C352.942 230.812 352.615 228.84 351.962 227.72C351.309 226.577 350.364 226.005 349.127 226.005C348.264 226.005 347.307 226.285 346.257 226.845V240.95C347.144 241.323 348.1 241.51 349.127 241.51ZM365.061 242.525C363.708 242.525 362.564 242.14 361.631 241.37C360.721 240.6 360.266 239.492 360.266 238.045C360.266 236.948 360.826 235.945 361.946 235.035C363.066 234.102 364.828 233.402 367.231 232.935C367.604 232.865 368.024 232.795 368.491 232.725C368.958 232.632 369.448 232.538 369.961 232.445V229.68C369.961 228.093 369.763 226.985 369.366 226.355C368.993 225.702 368.398 225.375 367.581 225.375C367.021 225.375 366.578 225.562 366.251 225.935C365.924 226.285 365.714 226.903 365.621 227.79L365.551 228.175C365.504 229.178 365.259 229.913 364.816 230.38C364.373 230.847 363.824 231.08 363.171 231.08C362.564 231.08 362.063 230.893 361.666 230.52C361.269 230.147 361.071 229.645 361.071 229.015C361.071 228.058 361.398 227.253 362.051 226.6C362.728 225.947 363.614 225.457 364.711 225.13C365.808 224.803 366.998 224.64 368.281 224.64C370.358 224.64 371.956 225.153 373.076 226.18C374.219 227.183 374.791 228.828 374.791 231.115V238.85C374.791 239.9 375.281 240.425 376.261 240.425H377.031L377.346 240.705C376.903 241.265 376.413 241.697 375.876 242C375.363 242.303 374.628 242.455 373.671 242.455C372.644 242.455 371.828 242.222 371.221 241.755C370.638 241.265 370.253 240.623 370.066 239.83C369.366 240.577 368.643 241.218 367.896 241.755C367.173 242.268 366.228 242.525 365.061 242.525ZM367.196 240.39C367.663 240.39 368.094 240.285 368.491 240.075C368.911 239.842 369.401 239.492 369.961 239.025V233.145C369.728 233.192 369.494 233.238 369.261 233.285C369.028 233.332 368.759 233.378 368.456 233.425C367.383 233.705 366.519 234.183 365.866 234.86C365.236 235.513 364.921 236.4 364.921 237.52C364.921 238.477 365.143 239.2 365.586 239.69C366.029 240.157 366.566 240.39 367.196 240.39ZM385.807 235.945C384.197 235.945 382.832 235.677 381.712 235.14V236.33C381.712 237.053 382.074 237.485 382.797 237.625L389.377 238.85C390.474 239.06 391.465 239.34 392.352 239.69C393.239 240.017 393.95 240.495 394.487 241.125C395.024 241.732 395.292 242.572 395.292 243.645C395.292 244.788 394.919 245.838 394.172 246.795C393.425 247.775 392.317 248.557 390.847 249.14C389.4 249.747 387.592 250.05 385.422 250.05C383.555 250.05 382.074 249.852 380.977 249.455C379.88 249.082 379.099 248.592 378.632 247.985C378.189 247.378 377.967 246.737 377.967 246.06C377.967 245.22 378.247 244.368 378.807 243.505C379.39 242.665 380.102 241.988 380.942 241.475C380.219 241.195 379.694 240.833 379.367 240.39C379.04 239.947 378.877 239.468 378.877 238.955C378.877 238.488 378.994 238.057 379.227 237.66C379.484 237.24 379.787 236.82 380.137 236.4L381.292 234.93C379.589 233.95 378.737 232.41 378.737 230.31C378.737 228.63 379.332 227.265 380.522 226.215C381.735 225.165 383.509 224.64 385.842 224.64C387.032 224.64 388.07 224.78 388.957 225.06C389.867 225.34 390.614 225.737 391.197 226.25C391.944 226.133 392.644 225.947 393.297 225.69C393.974 225.41 394.58 225.037 395.117 224.57L395.607 224.92V226.705H391.652C392.492 227.638 392.912 228.84 392.912 230.31C392.912 231.943 392.305 233.297 391.092 234.37C389.902 235.42 388.14 235.945 385.807 235.945ZM385.772 235.245C386.705 235.245 387.382 234.86 387.802 234.09C388.245 233.32 388.467 232.037 388.467 230.24C388.467 228.443 388.245 227.183 387.802 226.46C387.382 225.713 386.729 225.34 385.842 225.34C384.979 225.34 384.325 225.725 383.882 226.495C383.439 227.242 383.217 228.513 383.217 230.31C383.217 232.107 383.415 233.378 383.812 234.125C384.232 234.872 384.885 235.245 385.772 235.245ZM380.557 244.94C380.557 246.317 380.977 247.355 381.817 248.055C382.68 248.755 384.034 249.105 385.877 249.105C387.814 249.105 389.272 248.79 390.252 248.16C391.232 247.53 391.722 246.643 391.722 245.5C391.722 244.847 391.477 244.322 390.987 243.925C390.52 243.528 389.715 243.225 388.572 243.015L382.237 241.825C382.05 241.778 381.864 241.732 381.677 241.685C381.35 242.152 381.082 242.677 380.872 243.26C380.662 243.867 380.557 244.427 380.557 244.94ZM405.359 224.64C406.876 224.64 408.171 224.955 409.244 225.585C410.317 226.192 411.134 227.032 411.694 228.105C412.277 229.155 412.569 230.357 412.569 231.71C412.569 231.967 412.557 232.235 412.534 232.515C412.511 232.772 412.464 233.005 412.394 233.215H401.964C401.987 235.735 402.431 237.555 403.294 238.675C404.181 239.772 405.487 240.32 407.214 240.32C408.381 240.32 409.326 240.133 410.049 239.76C410.772 239.387 411.449 238.838 412.079 238.115L412.429 238.43C411.706 239.713 410.737 240.717 409.524 241.44C408.334 242.163 406.899 242.525 405.219 242.525C403.562 242.525 402.092 242.175 400.809 241.475C399.526 240.752 398.522 239.725 397.799 238.395C397.076 237.065 396.714 235.478 396.714 233.635C396.714 231.722 397.134 230.1 397.974 228.77C398.814 227.417 399.887 226.39 401.194 225.69C402.524 224.99 403.912 224.64 405.359 224.64ZM405.254 225.34C404.577 225.34 403.994 225.55 403.504 225.97C403.037 226.367 402.664 227.09 402.384 228.14C402.127 229.167 401.987 230.625 401.964 232.515H407.949C408.182 229.972 408.089 228.14 407.669 227.02C407.249 225.9 406.444 225.34 405.254 225.34ZM439.22 250.4C438.286 250.4 437.54 250.167 436.98 249.7C436.443 249.233 436.175 248.638 436.175 247.915C436.175 247.262 436.408 246.737 436.875 246.34C437.341 245.943 437.866 245.745 438.45 245.745C439.033 245.745 439.523 245.862 439.92 246.095C440.316 246.352 440.666 246.713 440.97 247.18L441.215 247.46C441.728 248.16 442.241 248.148 442.755 247.425C442.965 247.075 443.198 246.608 443.455 246.025C443.735 245.465 444.05 244.707 444.4 243.75L437.61 227.51C437.446 227.067 437.271 226.717 437.085 226.46C436.898 226.18 436.595 225.947 436.175 225.76L435.545 225.515V225.165H444.26V225.48L443.56 225.76C443.046 225.923 442.778 226.192 442.755 226.565C442.755 226.915 442.848 227.358 443.035 227.895L446.675 237.345L450.14 227.79C450.326 227.253 450.396 226.81 450.35 226.46C450.303 226.087 450.011 225.83 449.475 225.69L448.74 225.515V225.165H453.605V225.515L452.835 225.76C452.298 225.923 451.925 226.157 451.715 226.46C451.505 226.763 451.306 227.183 451.12 227.72L445.485 243.085C444.575 245.535 443.665 247.367 442.755 248.58C441.845 249.793 440.666 250.4 439.22 250.4ZM463.046 242.525C461.273 242.525 459.733 242.163 458.426 241.44C457.12 240.693 456.105 239.643 455.381 238.29C454.681 236.937 454.331 235.35 454.331 233.53C454.331 231.71 454.705 230.135 455.451 228.805C456.221 227.475 457.26 226.448 458.566 225.725C459.896 225.002 461.39 224.64 463.046 224.64C464.703 224.64 466.185 225.002 467.491 225.725C468.798 226.425 469.825 227.44 470.571 228.77C471.341 230.1 471.726 231.687 471.726 233.53C471.726 235.373 471.365 236.972 470.641 238.325C469.941 239.655 468.938 240.693 467.631 241.44C466.348 242.163 464.82 242.525 463.046 242.525ZM463.046 241.825C463.863 241.825 464.516 241.592 465.006 241.125C465.496 240.658 465.846 239.83 466.056 238.64C466.29 237.45 466.406 235.77 466.406 233.6C466.406 231.407 466.29 229.715 466.056 228.525C465.846 227.335 465.496 226.507 465.006 226.04C464.516 225.573 463.863 225.34 463.046 225.34C462.23 225.34 461.565 225.573 461.051 226.04C460.561 226.507 460.2 227.335 459.966 228.525C459.756 229.715 459.651 231.407 459.651 233.6C459.651 235.77 459.756 237.45 459.966 238.64C460.2 239.83 460.561 240.658 461.051 241.125C461.565 241.592 462.23 241.825 463.046 241.825ZM479.812 242.525C478.902 242.525 478.062 242.35 477.292 242C476.545 241.65 475.95 241.09 475.507 240.32C475.087 239.527 474.889 238.488 474.912 237.205L475.017 228.21C475.017 227.673 474.924 227.288 474.737 227.055C474.55 226.822 474.259 226.658 473.862 226.565L473.442 226.425V226.075L479.707 224.85L480.057 225.2L479.882 230.17V238.605C479.882 239.352 480.092 239.9 480.512 240.25C480.955 240.6 481.504 240.775 482.157 240.775C482.81 240.775 483.394 240.682 483.907 240.495C484.42 240.308 484.934 240.028 485.447 239.655L485.587 228.245C485.587 227.708 485.505 227.335 485.342 227.125C485.179 226.892 484.875 226.728 484.432 226.635L484.082 226.53V226.18L490.207 224.85L490.557 225.2L490.452 230.17V239.655C490.452 240.168 490.522 240.565 490.662 240.845C490.802 241.125 491.105 241.358 491.572 241.545L491.922 241.65V242L485.797 242.35L485.482 240.285C484.712 240.915 483.872 241.452 482.962 241.895C482.075 242.315 481.025 242.525 479.812 242.525ZM1.55938 295V294.65L2.08438 294.51C2.55104 294.37 2.86604 294.16 3.02938 293.88C3.21604 293.6 3.30938 293.238 3.30938 292.795V281.84C3.30938 281.327 3.21604 280.953 3.02938 280.72C2.86604 280.463 2.55104 280.288 2.08438 280.195L1.55938 280.055V279.705L7.57938 277.675L7.92938 278.025L8.24438 281.035V281.315C8.57104 280.662 8.99104 280.067 9.50438 279.53C10.041 278.97 10.6244 278.515 11.2544 278.165C11.9077 277.815 12.5494 277.64 13.1794 277.64C14.066 277.64 14.7427 277.885 15.2094 278.375C15.676 278.865 15.9094 279.483 15.9094 280.23C15.9094 281.023 15.676 281.642 15.2094 282.085C14.766 282.505 14.2294 282.715 13.5994 282.715C12.6194 282.715 11.756 282.225 11.0094 281.245L10.9394 281.175C10.706 280.848 10.4377 280.673 10.1344 280.65C9.83104 280.603 9.55104 280.743 9.29438 281.07C9.06104 281.28 8.86271 281.537 8.69938 281.84C8.55938 282.12 8.41938 282.447 8.27938 282.82V292.585C8.27938 293.518 8.68771 294.102 9.50438 294.335L10.6244 294.65V295H1.55938ZM25.5967 277.64C27.1134 277.64 28.4084 277.955 29.4817 278.585C30.5551 279.192 31.3717 280.032 31.9317 281.105C32.5151 282.155 32.8067 283.357 32.8067 284.71C32.8067 284.967 32.7951 285.235 32.7717 285.515C32.7484 285.772 32.7017 286.005 32.6317 286.215H22.2017C22.2251 288.735 22.6684 290.555 23.5317 291.675C24.4184 292.772 25.7251 293.32 27.4517 293.32C28.6184 293.32 29.5634 293.133 30.2867 292.76C31.0101 292.387 31.6867 291.838 32.3167 291.115L32.6667 291.43C31.9434 292.713 30.9751 293.717 29.7617 294.44C28.5717 295.163 27.1367 295.525 25.4567 295.525C23.8001 295.525 22.3301 295.175 21.0467 294.475C19.7634 293.752 18.7601 292.725 18.0367 291.395C17.3134 290.065 16.9517 288.478 16.9517 286.635C16.9517 284.722 17.3717 283.1 18.2117 281.77C19.0517 280.417 20.1251 279.39 21.4317 278.69C22.7617 277.99 24.1501 277.64 25.5967 277.64ZM25.4917 278.34C24.8151 278.34 24.2317 278.55 23.7417 278.97C23.2751 279.367 22.9017 280.09 22.6217 281.14C22.3651 282.167 22.2251 283.625 22.2017 285.515H28.1867C28.4201 282.972 28.3267 281.14 27.9067 280.02C27.4867 278.9 26.6817 278.34 25.4917 278.34ZM45.121 303.05V302.7L45.856 302.525C46.7426 302.268 47.186 301.685 47.186 300.775V293.81C46.5093 294.323 45.7276 294.732 44.841 295.035C43.9776 295.362 43.0093 295.525 41.936 295.525C39.9526 295.525 38.3076 294.778 37.001 293.285C35.6943 291.792 35.041 289.622 35.041 286.775C35.041 284.815 35.3676 283.158 36.021 281.805C36.6743 280.452 37.5726 279.425 38.716 278.725C39.8826 278.002 41.2243 277.64 42.741 277.64C43.7676 277.64 44.701 277.792 45.541 278.095C46.4043 278.398 47.1626 278.783 47.816 279.25L51.806 277.64L52.156 277.99L52.051 282.715V300.88C52.051 301.837 52.471 302.408 53.311 302.595L53.626 302.7V303.05H45.121ZM44.246 294.125C45.226 294.125 46.171 293.752 47.081 293.005V279.705C46.6843 279.448 46.276 279.262 45.856 279.145C45.436 279.028 44.9343 278.97 44.351 278.97C43.1143 278.97 42.1343 279.577 41.411 280.79C40.6876 281.98 40.326 283.952 40.326 286.705C40.326 289.388 40.676 291.302 41.376 292.445C42.076 293.565 43.0326 294.125 44.246 294.125ZM61.2735 295.525C60.3635 295.525 59.5235 295.35 58.7535 295C58.0068 294.65 57.4118 294.09 56.9685 293.32C56.5485 292.527 56.3501 291.488 56.3735 290.205L56.4785 281.21C56.4785 280.673 56.3851 280.288 56.1985 280.055C56.0118 279.822 55.7201 279.658 55.3235 279.565L54.9035 279.425V279.075L61.1685 277.85L61.5185 278.2L61.3435 283.17V291.605C61.3435 292.352 61.5535 292.9 61.9735 293.25C62.4168 293.6 62.9651 293.775 63.6185 293.775C64.2718 293.775 64.8551 293.682 65.3685 293.495C65.8818 293.308 66.3951 293.028 66.9085 292.655L67.0485 281.245C67.0485 280.708 66.9668 280.335 66.8035 280.125C66.6401 279.892 66.3368 279.728 65.8935 279.635L65.5435 279.53V279.18L71.6685 277.85L72.0185 278.2L71.9135 283.17V292.655C71.9135 293.168 71.9835 293.565 72.1235 293.845C72.2635 294.125 72.5668 294.358 73.0335 294.545L73.3835 294.65V295L67.2585 295.35L66.9435 293.285C66.1735 293.915 65.3335 294.452 64.4235 294.895C63.5368 295.315 62.4868 295.525 61.2735 295.525ZM83.7952 277.64C85.3118 277.64 86.6068 277.955 87.6802 278.585C88.7535 279.192 89.5702 280.032 90.1302 281.105C90.7135 282.155 91.0052 283.357 91.0052 284.71C91.0052 284.967 90.9935 285.235 90.9702 285.515C90.9468 285.772 90.9002 286.005 90.8302 286.215H80.4002C80.4235 288.735 80.8668 290.555 81.7302 291.675C82.6168 292.772 83.9235 293.32 85.6502 293.32C86.8168 293.32 87.7618 293.133 88.4852 292.76C89.2085 292.387 89.8852 291.838 90.5152 291.115L90.8652 291.43C90.1418 292.713 89.1735 293.717 87.9602 294.44C86.7702 295.163 85.3352 295.525 83.6552 295.525C81.9985 295.525 80.5285 295.175 79.2452 294.475C77.9618 293.752 76.9585 292.725 76.2352 291.395C75.5118 290.065 75.1502 288.478 75.1502 286.635C75.1502 284.722 75.5702 283.1 76.4102 281.77C77.2502 280.417 78.3235 279.39 79.6302 278.69C80.9602 277.99 82.3485 277.64 83.7952 277.64ZM83.6902 278.34C83.0135 278.34 82.4302 278.55 81.9402 278.97C81.4735 279.367 81.1002 280.09 80.8202 281.14C80.5635 282.167 80.4235 283.625 80.4002 285.515H86.3852C86.6185 282.972 86.5252 281.14 86.1052 280.02C85.6852 278.9 84.8802 278.34 83.6902 278.34ZM99.1544 295.525C98.0111 295.525 96.9844 295.385 96.0744 295.105C95.1644 294.848 94.3244 294.522 93.5544 294.125L93.5894 289.96H93.9394L95.1294 292.06C95.6427 292.993 96.2027 293.693 96.8094 294.16C97.4394 294.603 98.2327 294.825 99.1894 294.825C100.309 294.825 101.208 294.58 101.884 294.09C102.584 293.577 102.934 292.9 102.934 292.06C102.934 291.29 102.689 290.66 102.199 290.17C101.709 289.68 100.799 289.237 99.4694 288.84L97.9994 288.385C96.5761 287.965 95.4561 287.312 94.6394 286.425C93.8227 285.538 93.4144 284.453 93.4144 283.17C93.4144 281.63 94.0211 280.323 95.2344 279.25C96.4477 278.177 98.1861 277.64 100.449 277.64C101.359 277.64 102.211 277.745 103.004 277.955C103.821 278.142 104.603 278.433 105.349 278.83L105.139 282.61H104.789L103.564 280.44C103.121 279.67 102.678 279.133 102.234 278.83C101.814 278.503 101.173 278.34 100.309 278.34C99.5161 278.34 98.7694 278.562 98.0694 279.005C97.3694 279.448 97.0194 280.078 97.0194 280.895C97.0194 281.688 97.3111 282.318 97.8944 282.785C98.5011 283.252 99.3877 283.683 100.554 284.08L102.129 284.535C103.809 285.048 105.011 285.76 105.734 286.67C106.458 287.557 106.819 288.63 106.819 289.89C106.819 291.593 106.143 292.958 104.789 293.985C103.459 295.012 101.581 295.525 99.1544 295.525ZM115.344 295.525C113.85 295.525 112.684 295.152 111.844 294.405C111.027 293.658 110.619 292.468 110.619 290.835V278.865H108.204V278.515L109.044 278.375C109.767 278.212 110.385 277.978 110.899 277.675C111.435 277.372 111.96 276.963 112.474 276.45L115.344 273.265H115.694L115.589 278.165H119.509V278.865H115.554V291.465C115.554 292.282 115.729 292.9 116.079 293.32C116.452 293.74 116.919 293.95 117.479 293.95C117.969 293.95 118.4 293.833 118.774 293.6C119.147 293.343 119.52 293.005 119.894 292.585L120.244 292.935C119.777 293.728 119.135 294.358 118.319 294.825C117.502 295.292 116.51 295.525 115.344 295.525ZM130.372 277.64C131.889 277.64 133.184 277.955 134.257 278.585C135.331 279.192 136.147 280.032 136.707 281.105C137.291 282.155 137.582 283.357 137.582 284.71C137.582 284.967 137.571 285.235 137.547 285.515C137.524 285.772 137.477 286.005 137.407 286.215H126.977C127.001 288.735 127.444 290.555 128.307 291.675C129.194 292.772 130.501 293.32 132.227 293.32C133.394 293.32 134.339 293.133 135.062 292.76C135.786 292.387 136.462 291.838 137.092 291.115L137.442 291.43C136.719 292.713 135.751 293.717 134.537 294.44C133.347 295.163 131.912 295.525 130.232 295.525C128.576 295.525 127.106 295.175 125.822 294.475C124.539 293.752 123.536 292.725 122.812 291.395C122.089 290.065 121.727 288.478 121.727 286.635C121.727 284.722 122.147 283.1 122.987 281.77C123.827 280.417 124.901 279.39 126.207 278.69C127.537 277.99 128.926 277.64 130.372 277.64ZM130.267 278.34C129.591 278.34 129.007 278.55 128.517 278.97C128.051 279.367 127.677 280.09 127.397 281.14C127.141 282.167 127.001 283.625 126.977 285.515H132.962C133.196 282.972 133.102 281.14 132.682 280.02C132.262 278.9 131.457 278.34 130.267 278.34ZM147.097 295.525C145.72 295.525 144.483 295.222 143.387 294.615C142.29 293.985 141.415 293.028 140.762 291.745C140.132 290.438 139.817 288.77 139.817 286.74C139.817 284.687 140.178 282.995 140.902 281.665C141.625 280.312 142.582 279.308 143.772 278.655C144.962 277.978 146.257 277.64 147.657 277.64C148.473 277.64 149.255 277.722 150.002 277.885C150.748 278.048 151.413 278.293 151.997 278.62V274.07C151.997 273.58 151.915 273.218 151.752 272.985C151.612 272.752 151.297 272.588 150.807 272.495L150.142 272.355V272.005L156.512 270.465L156.897 270.78L156.757 275.68V292.795C156.757 293.262 156.838 293.647 157.002 293.95C157.165 294.23 157.468 294.428 157.912 294.545L158.227 294.65V295L152.242 295.385L151.927 294.125C151.297 294.545 150.573 294.883 149.757 295.14C148.963 295.397 148.077 295.525 147.097 295.525ZM149.127 294.23C150.107 294.23 151.005 293.938 151.822 293.355V279.46C150.958 278.9 150.072 278.62 149.162 278.62C148.042 278.62 147.085 279.273 146.292 280.58C145.498 281.863 145.102 283.893 145.102 286.67C145.102 289.447 145.475 291.407 146.222 292.55C146.968 293.67 147.937 294.23 149.127 294.23ZM175.271 295.105L169.881 280.3C169.625 279.553 169.111 279.028 168.341 278.725L167.746 278.515V278.165H176.321V278.515L175.796 278.655C174.886 278.935 174.583 279.495 174.886 280.335L178.141 290.24L181.046 282.54L180.381 280.545C180.218 280.032 180.043 279.647 179.856 279.39C179.693 279.11 179.471 278.912 179.191 278.795L178.596 278.515V278.165H185.841V278.515L185.351 278.725C185.001 278.865 184.791 279.052 184.721 279.285C184.651 279.518 184.698 279.868 184.861 280.335L188.081 290.065L191.406 280.405C191.733 279.518 191.558 278.958 190.881 278.725L190.111 278.515V278.165H194.311V278.515L193.471 278.76C193.075 278.877 192.783 279.063 192.596 279.32C192.433 279.553 192.281 279.88 192.141 280.3L187.101 295.105H185.316L181.431 283.66L177.301 295.105H175.271ZM200.08 295.525C198.727 295.525 197.583 295.14 196.65 294.37C195.74 293.6 195.285 292.492 195.285 291.045C195.285 289.948 195.845 288.945 196.965 288.035C198.085 287.102 199.847 286.402 202.25 285.935C202.623 285.865 203.043 285.795 203.51 285.725C203.977 285.632 204.467 285.538 204.98 285.445V282.68C204.98 281.093 204.782 279.985 204.385 279.355C204.012 278.702 203.417 278.375 202.6 278.375C202.04 278.375 201.597 278.562 201.27 278.935C200.943 279.285 200.733 279.903 200.64 280.79L200.57 281.175C200.523 282.178 200.278 282.913 199.835 283.38C199.392 283.847 198.843 284.08 198.19 284.08C197.583 284.08 197.082 283.893 196.685 283.52C196.288 283.147 196.09 282.645 196.09 282.015C196.09 281.058 196.417 280.253 197.07 279.6C197.747 278.947 198.633 278.457 199.73 278.13C200.827 277.803 202.017 277.64 203.3 277.64C205.377 277.64 206.975 278.153 208.095 279.18C209.238 280.183 209.81 281.828 209.81 284.115V291.85C209.81 292.9 210.3 293.425 211.28 293.425H212.05L212.365 293.705C211.922 294.265 211.432 294.697 210.895 295C210.382 295.303 209.647 295.455 208.69 295.455C207.663 295.455 206.847 295.222 206.24 294.755C205.657 294.265 205.272 293.623 205.085 292.83C204.385 293.577 203.662 294.218 202.915 294.755C202.192 295.268 201.247 295.525 200.08 295.525ZM202.215 293.39C202.682 293.39 203.113 293.285 203.51 293.075C203.93 292.842 204.42 292.492 204.98 292.025V286.145C204.747 286.192 204.513 286.238 204.28 286.285C204.047 286.332 203.778 286.378 203.475 286.425C202.402 286.705 201.538 287.183 200.885 287.86C200.255 288.513 199.94 289.4 199.94 290.52C199.94 291.477 200.162 292.2 200.605 292.69C201.048 293.157 201.585 293.39 202.215 293.39ZM219.49 295.525C218.347 295.525 217.32 295.385 216.41 295.105C215.5 294.848 214.66 294.522 213.89 294.125L213.925 289.96H214.275L215.465 292.06C215.978 292.993 216.538 293.693 217.145 294.16C217.775 294.603 218.568 294.825 219.525 294.825C220.645 294.825 221.543 294.58 222.22 294.09C222.92 293.577 223.27 292.9 223.27 292.06C223.27 291.29 223.025 290.66 222.535 290.17C222.045 289.68 221.135 289.237 219.805 288.84L218.335 288.385C216.912 287.965 215.792 287.312 214.975 286.425C214.158 285.538 213.75 284.453 213.75 283.17C213.75 281.63 214.357 280.323 215.57 279.25C216.783 278.177 218.522 277.64 220.785 277.64C221.695 277.64 222.547 277.745 223.34 277.955C224.157 278.142 224.938 278.433 225.685 278.83L225.475 282.61H225.125L223.9 280.44C223.457 279.67 223.013 279.133 222.57 278.83C222.15 278.503 221.508 278.34 220.645 278.34C219.852 278.34 219.105 278.562 218.405 279.005C217.705 279.448 217.355 280.078 217.355 280.895C217.355 281.688 217.647 282.318 218.23 282.785C218.837 283.252 219.723 283.683 220.89 284.08L222.465 284.535C224.145 285.048 225.347 285.76 226.07 286.67C226.793 287.557 227.155 288.63 227.155 289.89C227.155 291.593 226.478 292.958 225.125 293.985C223.795 295.012 221.917 295.525 219.49 295.525ZM237.001 295V294.65L237.491 294.51C238.308 294.277 238.716 293.705 238.716 292.795V281.84C238.716 281.327 238.635 280.953 238.471 280.72C238.308 280.463 237.993 280.288 237.526 280.195L237.001 280.055V279.705L242.986 277.675L243.336 278.025L243.616 280.125C244.433 279.402 245.355 278.807 246.381 278.34C247.408 277.873 248.423 277.64 249.426 277.64C250.966 277.64 252.145 278.06 252.961 278.9C253.801 279.74 254.221 281.023 254.221 282.75V292.83C254.221 293.74 254.665 294.312 255.551 294.545L255.866 294.65V295H247.606V294.65L248.061 294.51C248.878 294.253 249.286 293.682 249.286 292.795V281.63C249.286 280.137 248.54 279.39 247.046 279.39C246.02 279.39 244.9 279.903 243.686 280.93V292.83C243.686 293.74 244.095 294.312 244.911 294.545L245.226 294.65V295H237.001ZM266.441 295.525C264.667 295.525 263.127 295.163 261.821 294.44C260.514 293.693 259.499 292.643 258.776 291.29C258.076 289.937 257.726 288.35 257.726 286.53C257.726 284.71 258.099 283.135 258.846 281.805C259.616 280.475 260.654 279.448 261.961 278.725C263.291 278.002 264.784 277.64 266.441 277.64C268.097 277.64 269.579 278.002 270.886 278.725C272.192 279.425 273.219 280.44 273.966 281.77C274.736 283.1 275.121 284.687 275.121 286.53C275.121 288.373 274.759 289.972 274.036 291.325C273.336 292.655 272.332 293.693 271.026 294.44C269.742 295.163 268.214 295.525 266.441 295.525ZM266.441 294.825C267.257 294.825 267.911 294.592 268.401 294.125C268.891 293.658 269.241 292.83 269.451 291.64C269.684 290.45 269.801 288.77 269.801 286.6C269.801 284.407 269.684 282.715 269.451 281.525C269.241 280.335 268.891 279.507 268.401 279.04C267.911 278.573 267.257 278.34 266.441 278.34C265.624 278.34 264.959 278.573 264.446 279.04C263.956 279.507 263.594 280.335 263.361 281.525C263.151 282.715 263.046 284.407 263.046 286.6C263.046 288.77 263.151 290.45 263.361 291.64C263.594 292.83 263.956 293.658 264.446 294.125C264.959 294.592 265.624 294.825 266.441 294.825ZM283.521 295.525C282.028 295.525 280.861 295.152 280.021 294.405C279.205 293.658 278.796 292.468 278.796 290.835V278.865H276.381V278.515L277.221 278.375C277.945 278.212 278.563 277.978 279.076 277.675C279.613 277.372 280.138 276.963 280.651 276.45L283.521 273.265H283.871L283.766 278.165H287.686V278.865H283.731V291.465C283.731 292.282 283.906 292.9 284.256 293.32C284.63 293.74 285.096 293.95 285.656 293.95C286.146 293.95 286.578 293.833 286.951 293.6C287.325 293.343 287.698 293.005 288.071 292.585L288.421 292.935C287.955 293.728 287.313 294.358 286.496 294.825C285.68 295.292 284.688 295.525 283.521 295.525ZM297.91 295V294.65L298.365 294.545C298.808 294.428 299.158 294.23 299.415 293.95C299.671 293.647 299.8 293.262 299.8 292.795C299.8 291.932 299.8 291.08 299.8 290.24C299.823 289.377 299.835 288.513 299.835 287.65V278.865H297.875V278.48L298.645 278.34C299.111 278.293 299.45 278.13 299.66 277.85C299.87 277.57 300.021 277.185 300.115 276.695C300.348 275.785 300.686 274.992 301.13 274.315C301.596 273.615 302.121 272.973 302.705 272.39C303.591 271.55 304.525 270.967 305.505 270.64C306.508 270.29 307.488 270.115 308.445 270.115C309.378 270.115 310.23 270.313 311 270.71C311.77 271.083 312.155 271.713 312.155 272.6C312.155 273.23 311.968 273.732 311.595 274.105C311.221 274.455 310.696 274.63 310.02 274.63C309.46 274.63 308.946 274.478 308.48 274.175C308.013 273.872 307.558 273.335 307.115 272.565L306.625 271.97C306.368 271.643 306.111 271.492 305.855 271.515C305.598 271.515 305.411 271.702 305.295 272.075C305.131 272.892 305.003 273.848 304.91 274.945C304.84 276.042 304.805 277.115 304.805 278.165H308.725V278.865H304.805V292.725C304.805 293.612 305.271 294.183 306.205 294.44L307.08 294.65V295H297.91ZM318.632 295.525C316.858 295.525 315.318 295.163 314.012 294.44C312.705 293.693 311.69 292.643 310.967 291.29C310.267 289.937 309.917 288.35 309.917 286.53C309.917 284.71 310.29 283.135 311.037 281.805C311.807 280.475 312.845 279.448 314.152 278.725C315.482 278.002 316.975 277.64 318.632 277.64C320.288 277.64 321.77 278.002 323.077 278.725C324.383 279.425 325.41 280.44 326.157 281.77C326.927 283.1 327.312 284.687 327.312 286.53C327.312 288.373 326.95 289.972 326.227 291.325C325.527 292.655 324.523 293.693 323.217 294.44C321.933 295.163 320.405 295.525 318.632 295.525ZM318.632 294.825C319.448 294.825 320.102 294.592 320.592 294.125C321.082 293.658 321.432 292.83 321.642 291.64C321.875 290.45 321.992 288.77 321.992 286.6C321.992 284.407 321.875 282.715 321.642 281.525C321.432 280.335 321.082 279.507 320.592 279.04C320.102 278.573 319.448 278.34 318.632 278.34C317.815 278.34 317.15 278.573 316.637 279.04C316.147 279.507 315.785 280.335 315.552 281.525C315.342 282.715 315.237 284.407 315.237 286.6C315.237 288.77 315.342 290.45 315.552 291.64C315.785 292.83 316.147 293.658 316.637 294.125C317.15 294.592 317.815 294.825 318.632 294.825ZM335.397 295.525C334.487 295.525 333.647 295.35 332.877 295C332.131 294.65 331.536 294.09 331.092 293.32C330.672 292.527 330.474 291.488 330.497 290.205L330.602 281.21C330.602 280.673 330.509 280.288 330.322 280.055C330.136 279.822 329.844 279.658 329.447 279.565L329.027 279.425V279.075L335.292 277.85L335.642 278.2L335.467 283.17V291.605C335.467 292.352 335.677 292.9 336.097 293.25C336.541 293.6 337.089 293.775 337.742 293.775C338.396 293.775 338.979 293.682 339.492 293.495C340.006 293.308 340.519 293.028 341.032 292.655L341.172 281.245C341.172 280.708 341.091 280.335 340.927 280.125C340.764 279.892 340.461 279.728 340.017 279.635L339.667 279.53V279.18L345.792 277.85L346.142 278.2L346.037 283.17V292.655C346.037 293.168 346.107 293.565 346.247 293.845C346.387 294.125 346.691 294.358 347.157 294.545L347.507 294.65V295L341.382 295.35L341.067 293.285C340.297 293.915 339.457 294.452 338.547 294.895C337.661 295.315 336.611 295.525 335.397 295.525ZM349.271 295V294.65L349.761 294.51C350.577 294.277 350.986 293.705 350.986 292.795V281.84C350.986 281.327 350.904 280.953 350.741 280.72C350.577 280.463 350.262 280.288 349.796 280.195L349.271 280.055V279.705L355.256 277.675L355.606 278.025L355.886 280.125C356.702 279.402 357.624 278.807 358.651 278.34C359.677 277.873 360.692 277.64 361.696 277.64C363.236 277.64 364.414 278.06 365.231 278.9C366.071 279.74 366.491 281.023 366.491 282.75V292.83C366.491 293.74 366.934 294.312 367.821 294.545L368.136 294.65V295H359.876V294.65L360.331 294.51C361.147 294.253 361.556 293.682 361.556 292.795V281.63C361.556 280.137 360.809 279.39 359.316 279.39C358.289 279.39 357.169 279.903 355.956 280.93V292.83C355.956 293.74 356.364 294.312 357.181 294.545L357.496 294.65V295H349.271ZM377.275 295.525C375.898 295.525 374.662 295.222 373.565 294.615C372.468 293.985 371.593 293.028 370.94 291.745C370.31 290.438 369.995 288.77 369.995 286.74C369.995 284.687 370.357 282.995 371.08 281.665C371.803 280.312 372.76 279.308 373.95 278.655C375.14 277.978 376.435 277.64 377.835 277.64C378.652 277.64 379.433 277.722 380.18 277.885C380.927 278.048 381.592 278.293 382.175 278.62V274.07C382.175 273.58 382.093 273.218 381.93 272.985C381.79 272.752 381.475 272.588 380.985 272.495L380.32 272.355V272.005L386.69 270.465L387.075 270.78L386.935 275.68V292.795C386.935 293.262 387.017 293.647 387.18 293.95C387.343 294.23 387.647 294.428 388.09 294.545L388.405 294.65V295L382.42 295.385L382.105 294.125C381.475 294.545 380.752 294.883 379.935 295.14C379.142 295.397 378.255 295.525 377.275 295.525ZM379.305 294.23C380.285 294.23 381.183 293.938 382 293.355V279.46C381.137 278.9 380.25 278.62 379.34 278.62C378.22 278.62 377.263 279.273 376.47 280.58C375.677 281.863 375.28 283.893 375.28 286.67C375.28 289.447 375.653 291.407 376.4 292.55C377.147 293.67 378.115 294.23 379.305 294.23Z" fill="#292F36"/>
</svg>
