<svg width="90" height="90" viewBox="0 0 90 90" fill="none" xmlns="http://www.w3.org/2000/svg">
<path d="M61.5002 79.5H58.5002V72V15C58.5002 14.7 58.3502 14.25 58.2002 14.1L53.8502 1.05C53.7002 0.45 53.1002 0 52.5002 0C51.9002 0 51.3002 0.45 51.1502 1.05L46.8002 14.1C46.6502 14.4 46.5002 14.7 46.5002 15V72V88.5C46.5002 89.4 47.1002 90 48.0002 90H57.0002C57.9002 90 58.5002 89.4 58.5002 88.5V82.5H63.0002C63.9002 82.5 64.5002 81.9 64.5002 81V36H61.5002V79.5ZM49.5002 16.5H55.5002V70.5H49.5002V16.5ZM52.5002 6.3L54.9002 13.5H50.1002L52.5002 6.3ZM55.5002 87H49.5002V73.5H55.5002V87Z" fill="#CDA274"/>
<path d="M88.5005 0H72.0005C71.1005 0 70.5005 0.6 70.5005 1.5V88.5C70.5005 89.4 71.1005 90 72.0005 90H88.5005C89.4005 90 90.0005 89.4 90.0005 88.5V1.5C90.0005 0.6 89.4005 0 88.5005 0ZM87.0005 87H73.5005V76.5H81.0005V73.5H73.5005V61.5H81.0005V58.5H73.5005V46.5H81.0005V43.5H73.5005V31.5H81.0005V28.5H73.5005V16.5H81.0005V13.5H73.5005V3H87.0005V87Z" fill="#CDA274"/>
<path d="M21 14.9996C9.45 14.9996 0 24.4496 0 35.9996C0 44.0996 4.65 51.4496 12 54.8996V65.9996V73.4996C12 74.3996 12.6 74.9996 13.5 74.9996H19.5V79.4996H22.5V74.9996H28.5C29.4 74.9996 30 74.3996 30 73.4996V65.9996V54.8996C37.35 51.4496 42 44.0996 42 35.9996C42 24.4496 32.55 14.9996 21 14.9996ZM27 71.9996H15V67.4996H27V71.9996ZM27.9 52.6496C27.3 52.7996 27 53.3996 27 53.9996V64.4996H15V61.4996H22.5V58.4996H15V53.9996C15 53.3996 14.7 52.7996 14.1 52.6496C7.35 49.7996 3 43.1996 3 35.9996C3 26.0996 11.1 17.9996 21 17.9996C30.9 17.9996 39 26.0996 39 35.9996C39 43.1996 34.65 49.7996 27.9 52.6496Z" fill="#CDA274"/>
<path d="M24.4504 27.4505L21.0004 30.9005L17.5504 27.4505L15.4504 29.5505L19.5004 33.6005V49.5005H22.5004V33.6005L26.5504 29.5505L24.4504 27.4505Z" fill="#CDA274"/>
</svg>
